<svg viewBox="0 0 400 400" xmlns="http://www.w3.org/2000/svg">
  <!-- Shadow -->
  <ellipse cx="200" cy="370" rx="100" ry="15" fill="#2c3e50" opacity="0.2"/>
  
  <!-- Body (Torso) -->
  <path d="M180 160 L220 160 L210 220 L190 220 Z" fill="#2c3e50"/>
  
  <!-- Head -->
  <circle cx="200" cy="140" r="30" fill="#2c3e50"/>
  
  <!-- Mask -->
  <rect x="170" y="130" width="60" height="10" fill="#3498db"/>
  
  <!-- Eyes -->
  <circle cx="185" cy="135" r="4" fill="white"/>
  <circle cx="215" cy="135" r="4" fill="white"/>
  
  <!-- Belt -->
  <path d="M180 220 L220 220" stroke="#3498db" stroke-width="6"/>
  <path d="M195 215 L205 225" stroke="#3498db" stroke-width="6"/>
  
  <!-- Kicking Leg (Right) -->
  <path d="M210 220 L250 230 L280 220" 
        stroke="#2c3e50" stroke-width="25" stroke-linecap="round"/>
  <!-- Right Foot -->
  <path d="M275 215 L295 220" stroke="#2c3e50" stroke-width="20" stroke-linecap="round"/>
  
  <!-- Supporting Leg (Left) -->
  <path d="M190 220 L170 270 L180 320" 
        stroke="#2c3e50" stroke-width="25" stroke-linecap="round"/>
  <!-- Left Foot -->
  <path d="M175 315 L195 325" stroke="#2c3e50" stroke-width="20" stroke-linecap="round"/>
  
  <!-- Right Arm -->
  <path d="M210 170 L250 150 L290 160" 
        stroke="#2c3e50" stroke-width="20" stroke-linecap="round"/>
  <!-- Right Hand -->
  <circle cx="295" cy="160" r="12" fill="#2c3e50"/>
  
  <!-- Left Arm (holding nunchuck) -->
  <path d="M190 170 L150 150 L110 170" 
        stroke="#2c3e50" stroke-width="20" stroke-linecap="round"/>
  <!-- Left Hand -->
  <circle cx="105" cy="170" r="12" fill="#2c3e50"/>
  
  <!-- Nunchucks -->
  <!-- First handle (in hand) -->
  <rect x="85" y="165" width="30" height="12" rx="6" fill="#2c3e50"/>
  
  <!-- Chain links (dangling down) -->
  <path d="M85 171 
           C 85 171, 80 180, 80 190
           C 80 200, 75 210, 75 220
           C 75 230, 70 240, 70 250" 
        stroke="#3498db" stroke-width="3" fill="none"/>
  
  <!-- Second handle (hanging) -->
  <rect x="60" y="250" width="30" height="12" rx="6" 
        transform="rotate(15, 75, 256)" fill="#2c3e50"/>
  
  <!-- Action lines -->
  <path d="M285 210 L305 190" stroke="#3498db" stroke-width="3"/>
  <path d="M290 220 L310 200" stroke="#3498db" stroke-width="3"/>
  <path d="M295 230 L315 210" stroke="#3498db" stroke-width="3"/>
</svg>
